<?xml version="1.0" encoding="UTF-8" standalone="no"?>
<!-- Created with Inkscape (http://www.inkscape.org/) -->

<svg
   xmlns:dc="http://purl.org/dc/elements/1.1/"
   xmlns:cc="http://creativecommons.org/ns#"
   xmlns:rdf="http://www.w3.org/1999/02/22-rdf-syntax-ns#"
   xmlns:svg="http://www.w3.org/2000/svg"
   xmlns="http://www.w3.org/2000/svg"
   xmlns:sodipodi="http://sodipodi.sourceforge.net/DTD/sodipodi-0.dtd"
   xmlns:inkscape="http://www.inkscape.org/namespaces/inkscape"
   width="320.96875"
   height="321"
   id="svg2"
   version="1.1"
   inkscape:version="0.48.2 r9819"
   inkscape:export-filename="/Users/Perceptum/Documents/tandartsgooi/src/img/thcglogo.png"
   inkscape:export-xdpi="90"
   inkscape:export-ydpi="90"
   sodipodi:docname="thcglogo.svg">
  <defs
     id="defs4" />
  <sodipodi:namedview
     id="base"
     pagecolor="#ffffff"
     bordercolor="#666666"
     borderopacity="1.0"
     inkscape:pageopacity="0.0"
     inkscape:pageshadow="2"
     inkscape:zoom="1.6328077"
     inkscape:cx="99.258129"
     inkscape:cy="62.457312"
     inkscape:document-units="px"
     inkscape:current-layer="layer1"
     showgrid="false"
     inkscape:window-width="1402"
     inkscape:window-height="789"
     inkscape:window-x="0"
     inkscape:window-y="0"
     inkscape:window-maximized="0"
     fit-margin-top="0"
     fit-margin-left="0"
     fit-margin-right="0"
     fit-margin-bottom="0" />
  <metadata
     id="metadata7">
    <rdf:RDF>
      <cc:Work
         rdf:about="">
        <dc:format>image/svg+xml</dc:format>
        <dc:type
           rdf:resource="http://purl.org/dc/dcmitype/StillImage" />
        <dc:title></dc:title>
      </cc:Work>
    </rdf:RDF>
  </metadata>
  <g
     inkscape:label="Layer 1"
     inkscape:groupmode="layer"
     id="layer1"
     transform="translate(-139.65625,-286.375)">
    <path
       style="fill:#333333;fill-opacity:1;fill-rule:evenodd;stroke:none"
       d="m 300.15625,286.375 c -73.45148,0 -135.36993,49.3427 -154.4375,116.6875 l 58.03125,0 0,9.96875 -31.0625,0 0,77.5 -11.875,0 0,-77.5 -17.59375,0 c -2.34218,10.91148 -3.5625,22.23253 -3.5625,33.84375 0,88.6417 71.8583,160.5 160.5,160.5 75.34967,0 138.54612,-51.95043 155.8125,-121.96875 -3.24203,1.8026 -6.68898,3.26041 -10.34375,4.375 -5.50788,1.64062 -11.37506,2.46875 -17.625,2.46875 -13.67191,0 -24.39065,-4 -32.125,-11.96875 -7.69532,-8.00779 -11.53126,-19.11716 -11.53125,-33.375 -10e-6,-14.29682 3.83593,-25.43743 11.53125,-33.40625 7.73435,-8.00773 18.45309,-12.03116 32.125,-12.03125 5.70307,9e-5 11.1015,0.71884 16.21875,2.125 4.18939,1.14265 8.10204,2.73069 11.75,4.75 C 438.71283,338.31056 375.51647,286.375 300.15625,286.375 z m 43,115.09375 c 5.23432,9e-5 10.14057,0.71884 14.75,2.125 4.64837,1.36727 8.99993,3.4454 13.0625,6.21875 l 0,12.46875 c -3.98445,-3.71087 -8.21882,-6.47649 -12.75,-8.3125 -4.49225,-1.83586 -9.29693,-2.74992 -14.375,-2.75 -10.00004,8e-5 -17.65628,3.05476 -22.96875,9.1875 -5.31252,6.09381 -7.96877,14.93756 -7.96875,26.5 -2e-5,11.52347 2.65623,20.33596 7.96875,26.46875 5.31247,6.09376 12.96871,9.15626 22.96875,9.15625 5.07807,10e-6 9.88275,-0.9453 14.375,-2.78125 4.53118,-1.83592 8.76555,-4.60155 12.75,-8.3125 l 0,12.375 c -4.1407,2.8125 -8.53913,4.90625 -13.1875,6.3125 -4.60943,1.40625 -9.4688,2.125 -14.625,2.125 -13.24222,0 -23.69534,-4.03906 -31.3125,-12.125 -7.6172,-8.12498 -11.40626,-19.19528 -11.40625,-33.21875 -10e-6,-14.06244 3.78905,-25.16399 11.40625,-33.25 7.61716,-8.12491 18.07028,-12.18741 31.3125,-12.1875 z M 215.25,403.0625 l 11.8125,0 0,35.875 43.03125,0 0,-35.875 11.8125,0 0,87.46875 -11.8125,0 0,-41.65625 -43.03125,0 0,41.65625 -11.8125,0 0,-87.46875 z M 429,411.21875 c -10.70317,8e-5 -18.76566,2.99226 -24.15625,8.96875 -5.35158,5.97663 -8.03127,14.88287 -8.03125,26.71875 -2e-5,11.79691 2.67967,20.67971 8.03125,26.65625 5.39059,5.97657 13.45308,8.96876 24.15625,8.96875 4.17963,10e-6 7.90619,-0.35937 11.1875,-1.0625 3.28118,-0.74218 6.22649,-1.8828 8.84375,-3.40625 l 0,-23.5 -19.34375,0 0,-9.71875 30.9375,0 c -0.10271,-8.29612 -0.84022,-16.45884 -2.15625,-24.40625 l 0,1.96875 c -4.37508,-3.71087 -9.04695,-6.49993 -13.96875,-8.375 -4.92194,-1.87492 -10.07037,-2.81242 -15.5,-2.8125 z"
       id="path2997"
       inkscape:export-filename="/Users/Perceptum/Documents/tandartsgooi/src/img/thcglogo.png"
       inkscape:export-xdpi="90"
       inkscape:export-ydpi="90"
       inkscape:connector-curvature="0" />
  </g>
</svg>
